<mxfile host="app.diagrams.net" modified="2021-10-19T07:19:04.332Z" agent="5.0 (Windows NT 10.0; Win64; x64) AppleWebKit/537.36 (KHTML, like Gecko) Chrome/94.0.4606.81 Safari/537.36" etag="uSsPwk4nW9LuHWw5YVrJ" version="15.5.4" type="github">
  <diagram id="R2lEEEUBdFMjLlhIrx00" name="Page-1">
    <mxGraphModel dx="1422" dy="736" grid="1" gridSize="10" guides="1" tooltips="1" connect="1" arrows="1" fold="1" page="1" pageScale="1" pageWidth="850" pageHeight="1100" math="0" shadow="0" extFonts="Permanent Marker^https://fonts.googleapis.com/css?family=Permanent+Marker">
      <root>
        <mxCell id="0" />
        <mxCell id="1" parent="0" />
        <mxCell id="NIIQkVKCulbOTZcmZ7lw-1" value="Penduduk" style="swimlane;fontStyle=0;childLayout=stackLayout;horizontal=1;startSize=26;horizontalStack=0;resizeParent=1;resizeParentMax=0;resizeLast=0;collapsible=1;marginBottom=0;align=center;fontSize=14;" vertex="1" parent="1">
          <mxGeometry x="300" y="90" width="160" height="176" as="geometry" />
        </mxCell>
        <mxCell id="NIIQkVKCulbOTZcmZ7lw-2" value="NIK" style="text;strokeColor=none;fillColor=none;spacingLeft=4;spacingRight=4;overflow=hidden;rotatable=0;points=[[0,0.5],[1,0.5]];portConstraint=eastwest;fontSize=12;fontStyle=4" vertex="1" parent="NIIQkVKCulbOTZcmZ7lw-1">
          <mxGeometry y="26" width="160" height="30" as="geometry" />
        </mxCell>
        <mxCell id="NIIQkVKCulbOTZcmZ7lw-3" value="Nama" style="text;strokeColor=none;fillColor=none;spacingLeft=4;spacingRight=4;overflow=hidden;rotatable=0;points=[[0,0.5],[1,0.5]];portConstraint=eastwest;fontSize=12;" vertex="1" parent="NIIQkVKCulbOTZcmZ7lw-1">
          <mxGeometry y="56" width="160" height="30" as="geometry" />
        </mxCell>
        <mxCell id="NIIQkVKCulbOTZcmZ7lw-4" value="Tanggal_lahir" style="text;strokeColor=none;fillColor=none;spacingLeft=4;spacingRight=4;overflow=hidden;rotatable=0;points=[[0,0.5],[1,0.5]];portConstraint=eastwest;fontSize=12;" vertex="1" parent="NIIQkVKCulbOTZcmZ7lw-1">
          <mxGeometry y="86" width="160" height="30" as="geometry" />
        </mxCell>
        <mxCell id="NIIQkVKCulbOTZcmZ7lw-7" value="{ No_telepon }" style="text;strokeColor=none;fillColor=none;spacingLeft=4;spacingRight=4;overflow=hidden;rotatable=0;points=[[0,0.5],[1,0.5]];portConstraint=eastwest;fontSize=12;" vertex="1" parent="NIIQkVKCulbOTZcmZ7lw-1">
          <mxGeometry y="116" width="160" height="30" as="geometry" />
        </mxCell>
        <mxCell id="NIIQkVKCulbOTZcmZ7lw-6" value="Umur ()" style="text;strokeColor=none;fillColor=none;spacingLeft=4;spacingRight=4;overflow=hidden;rotatable=0;points=[[0,0.5],[1,0.5]];portConstraint=eastwest;fontSize=12;" vertex="1" parent="NIIQkVKCulbOTZcmZ7lw-1">
          <mxGeometry y="146" width="160" height="30" as="geometry" />
        </mxCell>
        <mxCell id="NIIQkVKCulbOTZcmZ7lw-26" style="edgeStyle=orthogonalEdgeStyle;rounded=0;orthogonalLoop=1;jettySize=auto;html=1;exitX=0.5;exitY=1;exitDx=0;exitDy=0;entryX=0.5;entryY=0;entryDx=0;entryDy=0;fontFamily=Times New Roman;endArrow=none;endFill=0;" edge="1" parent="1" source="NIIQkVKCulbOTZcmZ7lw-9" target="NIIQkVKCulbOTZcmZ7lw-12">
          <mxGeometry relative="1" as="geometry" />
        </mxCell>
        <mxCell id="NIIQkVKCulbOTZcmZ7lw-27" style="edgeStyle=orthogonalEdgeStyle;rounded=0;orthogonalLoop=1;jettySize=auto;html=1;exitX=0.5;exitY=0;exitDx=0;exitDy=0;entryX=0.5;entryY=0;entryDx=0;entryDy=0;fontFamily=Times New Roman;endArrow=none;endFill=0;" edge="1" parent="1" source="NIIQkVKCulbOTZcmZ7lw-9" target="NIIQkVKCulbOTZcmZ7lw-18">
          <mxGeometry relative="1" as="geometry" />
        </mxCell>
        <mxCell id="NIIQkVKCulbOTZcmZ7lw-28" style="edgeStyle=orthogonalEdgeStyle;rounded=0;orthogonalLoop=1;jettySize=auto;html=1;exitX=0;exitY=0.5;exitDx=0;exitDy=0;entryX=0.498;entryY=0.998;entryDx=0;entryDy=0;entryPerimeter=0;fontFamily=Times New Roman;endArrow=none;endFill=0;shape=link;" edge="1" parent="1" source="NIIQkVKCulbOTZcmZ7lw-9" target="NIIQkVKCulbOTZcmZ7lw-6">
          <mxGeometry relative="1" as="geometry" />
        </mxCell>
        <mxCell id="NIIQkVKCulbOTZcmZ7lw-9" value="&lt;font face=&quot;Times New Roman&quot;&gt;ISA&lt;/font&gt;" style="triangle;whiteSpace=wrap;html=1;direction=south;" vertex="1" parent="1">
          <mxGeometry x="340" y="300" width="80" height="60" as="geometry" />
        </mxCell>
        <mxCell id="NIIQkVKCulbOTZcmZ7lw-12" value="Tuna Karya" style="swimlane;fontStyle=0;childLayout=stackLayout;horizontal=1;startSize=26;horizontalStack=0;resizeParent=1;resizeParentMax=0;resizeLast=0;collapsible=1;marginBottom=0;align=center;fontSize=14;fontFamily=Times New Roman;" vertex="1" parent="1">
          <mxGeometry x="150" y="400" width="160" height="56" as="geometry" />
        </mxCell>
        <mxCell id="NIIQkVKCulbOTZcmZ7lw-13" value="No_kartu_prakerja" style="text;strokeColor=none;fillColor=none;spacingLeft=4;spacingRight=4;overflow=hidden;rotatable=0;points=[[0,0.5],[1,0.5]];portConstraint=eastwest;fontSize=12;fontFamily=Times New Roman;" vertex="1" parent="NIIQkVKCulbOTZcmZ7lw-12">
          <mxGeometry y="26" width="160" height="30" as="geometry" />
        </mxCell>
        <mxCell id="NIIQkVKCulbOTZcmZ7lw-18" value="Pekerja" style="swimlane;fontStyle=0;childLayout=stackLayout;horizontal=1;startSize=26;horizontalStack=0;resizeParent=1;resizeParentMax=0;resizeLast=0;collapsible=1;marginBottom=0;align=center;fontSize=14;fontFamily=Times New Roman;" vertex="1" parent="1">
          <mxGeometry x="450" y="400" width="160" height="56" as="geometry" />
        </mxCell>
        <mxCell id="NIIQkVKCulbOTZcmZ7lw-20" value="Perusahaan" style="swimlane;fontStyle=0;childLayout=stackLayout;horizontal=1;startSize=26;horizontalStack=0;resizeParent=1;resizeParentMax=0;resizeLast=0;collapsible=1;marginBottom=0;align=center;fontSize=14;" vertex="1" parent="1">
          <mxGeometry x="450" y="600" width="160" height="116" as="geometry" />
        </mxCell>
        <mxCell id="NIIQkVKCulbOTZcmZ7lw-21" value="Id_perusahaan" style="text;strokeColor=none;fillColor=none;spacingLeft=4;spacingRight=4;overflow=hidden;rotatable=0;points=[[0,0.5],[1,0.5]];portConstraint=eastwest;fontSize=12;fontStyle=4" vertex="1" parent="NIIQkVKCulbOTZcmZ7lw-20">
          <mxGeometry y="26" width="160" height="30" as="geometry" />
        </mxCell>
        <mxCell id="NIIQkVKCulbOTZcmZ7lw-22" value="Nama" style="text;strokeColor=none;fillColor=none;spacingLeft=4;spacingRight=4;overflow=hidden;rotatable=0;points=[[0,0.5],[1,0.5]];portConstraint=eastwest;fontSize=12;" vertex="1" parent="NIIQkVKCulbOTZcmZ7lw-20">
          <mxGeometry y="56" width="160" height="30" as="geometry" />
        </mxCell>
        <mxCell id="NIIQkVKCulbOTZcmZ7lw-23" value="Alamat" style="text;strokeColor=none;fillColor=none;spacingLeft=4;spacingRight=4;overflow=hidden;rotatable=0;points=[[0,0.5],[1,0.5]];portConstraint=eastwest;fontSize=12;" vertex="1" parent="NIIQkVKCulbOTZcmZ7lw-20">
          <mxGeometry y="86" width="160" height="30" as="geometry" />
        </mxCell>
        <mxCell id="NIIQkVKCulbOTZcmZ7lw-31" style="edgeStyle=orthogonalEdgeStyle;shape=link;rounded=0;orthogonalLoop=1;jettySize=auto;html=1;exitX=0.5;exitY=0;exitDx=0;exitDy=0;entryX=0.5;entryY=1;entryDx=0;entryDy=0;fontFamily=Times New Roman;endArrow=none;endFill=0;" edge="1" parent="1" source="NIIQkVKCulbOTZcmZ7lw-29" target="NIIQkVKCulbOTZcmZ7lw-18">
          <mxGeometry relative="1" as="geometry" />
        </mxCell>
        <mxCell id="NIIQkVKCulbOTZcmZ7lw-32" style="edgeStyle=orthogonalEdgeStyle;rounded=0;orthogonalLoop=1;jettySize=auto;html=1;exitX=0.5;exitY=1;exitDx=0;exitDy=0;entryX=0.5;entryY=0;entryDx=0;entryDy=0;fontFamily=Times New Roman;endArrow=classic;endFill=1;" edge="1" parent="1" source="NIIQkVKCulbOTZcmZ7lw-29" target="NIIQkVKCulbOTZcmZ7lw-20">
          <mxGeometry relative="1" as="geometry" />
        </mxCell>
        <mxCell id="NIIQkVKCulbOTZcmZ7lw-29" value="Karyawann&lt;br&gt;Perusahaan" style="shape=rhombus;perimeter=rhombusPerimeter;whiteSpace=wrap;html=1;align=center;fontFamily=Times New Roman;" vertex="1" parent="1">
          <mxGeometry x="470" y="500" width="120" height="60" as="geometry" />
        </mxCell>
        <mxCell id="NIIQkVKCulbOTZcmZ7lw-30" value="disjoint" style="text;strokeColor=none;fillColor=none;spacingLeft=4;spacingRight=4;overflow=hidden;rotatable=0;points=[[0,0.5],[1,0.5]];portConstraint=eastwest;fontSize=12;" vertex="1" parent="1">
          <mxGeometry x="425" y="290" width="160" height="30" as="geometry" />
        </mxCell>
        <mxCell id="NIIQkVKCulbOTZcmZ7lw-33" value="Asumsi:&#xa;Terdapat perusahaan yang mungkin tidak memiliki pekerja" style="text;strokeColor=none;fillColor=none;spacingLeft=4;spacingRight=4;overflow=hidden;rotatable=0;points=[[0,0.5],[1,0.5]];portConstraint=eastwest;fontSize=12;" vertex="1" parent="1">
          <mxGeometry x="80" y="656" width="330" height="30" as="geometry" />
        </mxCell>
      </root>
    </mxGraphModel>
  </diagram>
</mxfile>
